<mxfile host="app.diagrams.net" modified="2022-06-15T10:17:22.716Z" agent="5.0 (Macintosh; Intel Mac OS X 10_15_7) AppleWebKit/605.1.15 (KHTML, like Gecko) Version/15.2 Safari/605.1.15" etag="ihmFF36Fpd5UQ6DZN4Jy" version="20.0.1" type="github">
  <diagram id="C5RBs43oDa-KdzZeNtuy" name="Page-1">
    <mxGraphModel dx="830" dy="617" grid="1" gridSize="10" guides="1" tooltips="1" connect="1" arrows="1" fold="1" page="1" pageScale="1" pageWidth="827" pageHeight="1169" math="0" shadow="0">
      <root>
        <mxCell id="WIyWlLk6GJQsqaUBKTNV-0" />
        <mxCell id="WIyWlLk6GJQsqaUBKTNV-1" parent="WIyWlLk6GJQsqaUBKTNV-0" />
        <mxCell id="8gOTMGS7u2JTwowvSYQe-0" value="" style="rounded=0;whiteSpace=wrap;html=1;dashed=1;" vertex="1" parent="WIyWlLk6GJQsqaUBKTNV-1">
          <mxGeometry x="40" y="120" width="360" height="470" as="geometry" />
        </mxCell>
        <mxCell id="8gOTMGS7u2JTwowvSYQe-1" value="Profile" style="rounded=0;whiteSpace=wrap;html=1;" vertex="1" parent="WIyWlLk6GJQsqaUBKTNV-1">
          <mxGeometry x="140" y="130" width="120" height="60" as="geometry" />
        </mxCell>
        <mxCell id="8gOTMGS7u2JTwowvSYQe-2" value="Chalenges" style="rounded=0;whiteSpace=wrap;html=1;dashed=1;" vertex="1" parent="WIyWlLk6GJQsqaUBKTNV-1">
          <mxGeometry x="140" y="210" width="120" height="60" as="geometry" />
        </mxCell>
        <mxCell id="8gOTMGS7u2JTwowvSYQe-3" value="Badges" style="rounded=0;whiteSpace=wrap;html=1;" vertex="1" parent="WIyWlLk6GJQsqaUBKTNV-1">
          <mxGeometry x="600" y="110" width="120" height="60" as="geometry" />
        </mxCell>
        <mxCell id="8gOTMGS7u2JTwowvSYQe-4" value="Scratch cards" style="rounded=0;whiteSpace=wrap;html=1;" vertex="1" parent="WIyWlLk6GJQsqaUBKTNV-1">
          <mxGeometry x="80" y="465" width="120" height="60" as="geometry" />
        </mxCell>
        <mxCell id="8gOTMGS7u2JTwowvSYQe-6" value="" style="rounded=0;whiteSpace=wrap;html=1;fillColor=none;dashed=1;" vertex="1" parent="WIyWlLk6GJQsqaUBKTNV-1">
          <mxGeometry x="52" y="435" width="336" height="130" as="geometry" />
        </mxCell>
        <mxCell id="8gOTMGS7u2JTwowvSYQe-5" value="Partner scratch" style="rounded=0;whiteSpace=wrap;html=1;" vertex="1" parent="WIyWlLk6GJQsqaUBKTNV-1">
          <mxGeometry x="230" y="470" width="120" height="60" as="geometry" />
        </mxCell>
        <mxCell id="8gOTMGS7u2JTwowvSYQe-7" value="Scratch card" style="text;html=1;strokeColor=none;fillColor=none;align=center;verticalAlign=middle;whiteSpace=wrap;rounded=0;dashed=1;" vertex="1" parent="WIyWlLk6GJQsqaUBKTNV-1">
          <mxGeometry x="145" y="435" width="110" height="30" as="geometry" />
        </mxCell>
        <mxCell id="8gOTMGS7u2JTwowvSYQe-8" value="Home Screen" style="text;html=1;strokeColor=none;fillColor=none;align=center;verticalAlign=middle;whiteSpace=wrap;rounded=0;dashed=1;" vertex="1" parent="WIyWlLk6GJQsqaUBKTNV-1">
          <mxGeometry x="130" y="80" width="140" height="30" as="geometry" />
        </mxCell>
        <mxCell id="8gOTMGS7u2JTwowvSYQe-9" value="Levels" style="rounded=0;whiteSpace=wrap;html=1;fillColor=none;" vertex="1" parent="WIyWlLk6GJQsqaUBKTNV-1">
          <mxGeometry x="440" y="120" width="120" height="60" as="geometry" />
        </mxCell>
        <mxCell id="8gOTMGS7u2JTwowvSYQe-10" value="Partners" style="rounded=0;whiteSpace=wrap;html=1;dashed=1;fillColor=none;" vertex="1" parent="WIyWlLk6GJQsqaUBKTNV-1">
          <mxGeometry x="140" y="290" width="120" height="60" as="geometry" />
        </mxCell>
      </root>
    </mxGraphModel>
  </diagram>
</mxfile>
